<svg version="1.1" xmlns="http://www.w3.org/2000/svg" viewBox="0 0 1024 1024">
  
  <path id="head" fill="#000000" d="M153.2,722.7c-14.6-20.3-23.6-42.7-28-66.8-3-16.7-5-33.7-3.1-50.6 2.2-19.6 4.6-39.3 11.3-58.1 9.6-27.2 23.4-52.1 42-74.2 2.6-3.1 5-6.2 7.7-9.2 1.6-1.8 2-3.5 1-5.8-4.8-10.3-7.2-21.4-9.9-32.4-5.5-22-7.1-44.6-8.4-67.1-1.8-31.6-2.5-63.3-0.5-94.9 0.6-9.9 0.9-20 4.9-29.4 5.2-12.3 17.6-17.8 30.5-13.9 25.7,7.9 49.3,20.4 72.4,34 28.2,16.7 54.9,35.7 81,55.5 8.5,6.4 16.5,13.5 24.5,20.5 3.8,3.3 7.1,3.2 11.2,0.8 21.3-12.8 37.1-29.6 45.7-53.8 8.1-22.8 11.3-46 12.5-69.8 0.6-11.8 4.8-22 13.5-30.1 12.2-11.3 26.2-19.9 40.7-27.8 5.1-2.8 10.1-5.7 15.8-7.3 9.8-2.7 16.9,1 20.5,10.6 4,10.5 4.4,21.6 4.7,32.4 0.4,15.2 1.6,30.3 3.6,45.3 1.6,11.8 5.4,23.2 9.1,34.6 3.7,11.4 8.4,22.3 14.9,32.5 6.6,10.3 15.6,18 24.9,25.6 4,3.3 8.3,6 12.8,8.6 3.6,2.1 6.2,1.7 9.3-1 9.1-7.8 18.3-15.4 27.8-22.8 18.7-14.7 38.4-28 58.3-41.1 19.7-13 40.2-24.8 61.6-34.6 10.9-5 22.1-9.9 34.3-11.7 15-2.3 24.9,4.1 28.7,18.7 3.6,13.5 4.2,27.3 4.8,41 0.7,18 1,36 0,54 -1.1,19.4-2.3,38.9-5,58.2 -1.7,12.7-3.7,25.3-6.1,37.9 -1.6,8.2-4.5,16-7.4,23.7 -1.7,4.5-1.7,8 1.7,11.8 20,22.4 35.1,47.9 45.2,76.2 12.1,34.1 15.6,69.4 11.6,105.2 -3.8,33.7-16.8,63.9-39.9,89.1 -16.7,18.3-36.3,33-58.8,43.9 -15.5,7.5-31.8,12.4-48.4,16.3 -10.3,2.4-21,3.7-31.7,3.6 -12.3-0.1-24.7-0.8-36.9,1.1 -3.9,0.6-7.2,1.9-10.3,4.5 -11.9,10.1-25.7,17-39.9,23.4 -8.9,4-17.8,8.1-27.5,10.2 -6.6,1.5-13.2,3.3-19.8,4.8 -27.6,6.3-55.6,4.3-83.5,4.1 -23,-0.2 -45.4,-5.3 -67.3,-12.3 -18.1-5.8-35.4-13.2-51.5-23.5 -1.1-0.7-2.4-1.3-3.3-2.3 -7.5-8.3-17.5-9.3-27.8-9.8 -12-0.6-24,0.5-35.9-1 -20.9-2.6-41.2-7.1-60.5-15.7 -30.7-13.6-56.5-33.4-76.6-60.9z M459.9,281.4c-1.1,3-2.2,5.9-3.2,8.9 -7.8,22-21.6,39.3-41.2,51.7 -19.4,12.2-39.2,23.6-60.2,33.1 -19,8.7-37.5,18.5-56,28.3 -15.6,8.3-30.6,17.4-45,27.7 -14.3,10.3-26.3,22.9-38.9,35.1 -20.5,19.9-38.9,41.2-50.8,67.8 -6.4,14.3-11.1,29.1-15.2,44.1 -4.2,15.4-3.1,31.4-3.3,47.2 -0.2,13.9 1.1,27.4 5.7,40.7 4.4,12.9 9.1,25.7 16.5,37.2 11.6,18.1 27.1,32.3 45.1,43.9 18,11.6 37.6,20 58.3,24.9 19.8,4.7 40.1,6.9 60.4,5.9 11.1-0.5 20.7,2.5 29.7,8.2 24.7,15.7 51.1,27.3 79.8,33.5 13.9,3 27.7,5.5 41.9,5.4 8.2-0.1 16.3-0.1 24.5,0.2 21.9,0.7 43.4-1.9 64.4-8.5 20.4-6.5 39.2-16.5 57.3-27.7 11.2-7 22.8-11.9 36.5-11 14,1 27.9-0.7 41.8-2.7 14.3-2 28.1-6 41.7-11 23.1-8.5 43.2-21.3 60.7-38.2 11.2-10.8 20.2-23.3 26.8-37.6 5.6-12.1 10.7-24.4 12.4-37.7 1-7.7 1-15.6 1.2-23.4 0.3-12.8 0.1-25.7-1.5-38.4 -1.7-13.9-5.8-27.2-11-40.3 -5.5-13.9-11.2-27.7-19.5-40.2 -12.8-19.4-28.9-35.9-45.2-52.4 -23.2-23.6-50.9-40.6-79.9-55.6 -19-10-38.2-19.2-57.7-28.1 -16.7-7.6-32.5-16.8-48-26.5 -12.2-7.6-23.4-16.4-32.5-27.7 -9.6-11.9-16.3-25.5-21.9-39.5 -4.5-11.2-9.1-22.6-11.3-34.5 -3-16.2-3.6-32.7-3.2-49.2 0.2-8-1.6-15.8-3.6-23.8 -4.2-0.7-7.1,1.7-10,3.8 -8.9,6.5-17.7,13.1-26.5,19.6 -2.6,1.9-4.5,4.3-5.5,7.5 -2.2,6.8-2,13.8-2.1,20.8 -0.2,20-3.8,39.3-11.2,58.7z M194.9,406.9c1.1,9.8 4.1,19.1 8.4,27.9 1.5,3.2 3.5,3.7 6.3,1.8 1.2-0.9 2.5-1.7 3.7-2.6 10.1-8.1 20-16.5 30.3-24.4 19.4-14.8 41-25.9 62.6-37 15.4-7.9 30.9-15.4 46.4-22.9 4-1.9 4.3-3.7 1-6.9 -16.6-16.3-35-30.3-54.1-43.3 -16.7-11.3-33.7-22-51.3-31.7 -15.6-8.5-30.8-17.7-48.1-22.6 -5-1.4-6.6-0.6-7.8,4.5 -3,13.3-4.8,26.7-5.2,40.4 -0.8,24.5 1.2,48.9 2.5,73.3 0.8,14.3 2.1,28.5 5.3,43.4z M719.1,285.6c-2.8,1.7-5.7,3.5-8.5,5.2 -24.6,15.1-47.5,32.5-68.6,52.1 -3.7,3.4-3.5,4.3 1.2,6.4 5.2,2.3 10.3,4.6 15.4,7.1 15,7.4 30,14.8 45,22.3 12.1,6 23.7,12.8 35.1,19.9 16,9.9 29.8,22.8 44.9,33.9 8.2,6 9.5,5.6 12.9-4.1 0.1-0.3 0.2-0.6 0.3-1 7-22.2 9.6-45.1 11.2-68.2 1.6-24.3 0.9-48.6 1.1-72.9 0.1-12.1-1.9-23.9-3.6-35.7 -0.8-5.2-3-6.3-8-5.3 -14.2,3-26.4,10.7-39.1,17.2 -13.3,6.8-25.9,14.9-39.4,22.9z"/>
  
  <g id="eyes" fill="#000000">
    <path id="eye-right" d="M638,644.1c-4.8,0-9.1,0-12.8-3 -3.3-2.7-5.3-5.9-5.2-10.2 0.2-13.7 0.1-27.3 0.4-41 0.4-15.6-0.3-31.3-0.4-46.9 0-4-2.7-4.5-5.7-4.5 -9,0-18,0-27,1 -7.1,0.8-13.7,0.3-17.8-6.9 -2.9-5.2-2.3-16.9 1.4-21.5 2.1-2.6 4.8-4.6 8.4-4.7 33.1-1.4 66.3-0.6 99.4-0.7 4.6,0 9.3,0.6 13.9,0.7 6.1,0.1 11.7,4.6 12.7,10.7 2,12.6-2.9,23.7-17.9,22.6 -8.6-0.6-17.3-0.4-25.9-0.9 -5.1-0.3-6.6,1.8-6.6,6.7 0.2,27.3 0.1,54.7 0.2,82 0,13.1-3.9,17.1-17.4,17.1z"/>
    <path id="eye-left" d="M350.1,643.5c-6.5-2.8-8.5-7.4-8.4-14.1 0.3-27.8 0.2-55.7 0.2-83.5 0-7.3-0.2-7.5-7.6-7.6 -9.7-0.2-19.3,0.2-29,0.7 -7.9,0.4-12.9-3.8-14.6-11.5 -2-8.9 0-15.8 5.7-19.8 2-1.4 4.1-1.8 6.5-2 21.3-1.4 42.6-0.4 63.9-0.6 15.8-0.1 31.6-0.3 47.4,0.7 7.9,0.5 12.9,5.4 12.9,13.3 0,1.8 0,3.7 0,5.5 0,9.8-5.7,15.1-15.4,14.2 -9.5-0.9-19-0.7-28.5-0.6 -7.1,0.1-7.1,0.4-7.4,7.3 -1.4,27.8 0.2,55.6 0.3,83.4 0,7.9-2.4,12.4-8.5,14.3 -5.6,1.7-11.5,1-17.7,0.2z"/>
  </g>

  <g id="mouth" fill="#000000">
    <path d="M485.2,712.4c-9.2,3.8-17.6,8.7-27.2,10.2 -8.8,1.4-14.4-1.3-15.9-7.9 -1.4-5.9 3.2-12.1 10.6-14.8 6.7-2.4 13.5-4.6 20-7.6 14.9-7 18.4-32.6 0.5-41.8 -9.7-5-12.4-15.1-8-25.1 1.7-3.7 4.4-5.9 8.3-6.4 16.4-1.8 32.9-1.9 49.3,0.1 7.6,0.9 12,8 10.8,16.4 -0.9,6.4-3.2,11.5-9.7,15 -8.9,4.6-14.3,11.9-12.8,23.1 1.4,10.3 7.1,16.6 16.2,20.3 5.4,2.2 10.9,4.1 16.4,5.9 1.9,0.6 3.7,1.5 5.3,2.6 5.3,3.7 7.5,8.9 5.6,13.6 -1.9,4.8-7.6,7.7-13.7,6.7 -14-2.4-26.5-8.5-38.2-16 -3-1.9-5-2.5-7.9-0.3 -2.9,2.2-6.2,3.9-9.6,6z"/>
  </g>

  <g id="whiskers" fill="#000000">
     <path id="whisker-r1" d="M805.7,678.1c-14.6-0.7-28.3-4.3-42.2-6.5 -9.3-1.5-18.5-3.6-27.9-5.1 -4.4-0.7-8.7-2-13.1-2.7 -5.2-0.8-9.8-8.2-9.2-13.3 0.7-6.2 6.2-11.2 12.3-11.8 8.4-0.8 16,2.7 23.9,4.2 5.8,1.1 11.7,2.6 17.5,3.4 13.1,1.9 26,5.2 39.1,7.3 7.4,1.2 12.8,6.4 12.8,12.4 -0.1,5.3-6,11-13.2,12.1z"/>
    <path id="whisker-r2" d="M799.2,574.8c5.5,0.3 10.9-1.5 14.9,3.3 2.6,3.2 5.8,6.5 4.2,11 -2,5.4-5.2,10.2-11.7,10.9 -17.6,2.1-35,5.4-52.4,8.4 -9,1.5-18.1,2.4-27.1,3.4 -6.6,0.7-12.3-4-13.7-10.6 -1-4.9 4.7-13.2 10.3-14.2 7-1.3 14-2.6 21.1-3.3 11.2-1.1 22.3-3.4 33.4-5.2 6.9-1.1 13.7-2.3 21-3.5z"/>
    <path id="whisker-l1" d="M195,600.3c-4,0-7.3-0.5-10.4-2.6 -4.8-3.3-6.8-8.7-5.2-14.4 1.5-5.3 5.6-8.4 11.5-8.6 12.7-0.3 24.9,3.1 37.3,5.3 7.4,1.3 14.8,2.3 22.1,3.2 7.2,0.9 14.4,1.7 21.6,3.4 6.2,1.5 11.1,8.2 10.4,15 -0.7,5.9-6.3,10.8-12.7,10.2 -9.7-1-19.4-2.5-29.1-4 -9.3-1.5-18.5-3.5-27.9-4.7 -5.8-0.7-11.2-3.3-17.6-2.9z"/>
    <path id="whisker-l2" d="M183.7,675.5c-4.9-3.9-6.1-8.7-4.3-14.1 1.7-5.1 5.9-7 11.1-7.9 14.1-2.4 28-5.3 42.1-7.9 9.1-1.7 18.2-3.6 27.2-5.7 6-1.4 12.5-3 18.1,2 4.1,3.7 5.8,8.1 4.4,13.4 -1.3,4.9-6.1,8.2-11.3,9.1 -15,2.6-30,5.5-45,8.3 -8.8,1.6-17.6,3.5-26.4,5 -5.3,0.9-10.6,1.6-15.7-2.2z"/>
  </g>
</svg>