<svg width="200" height="200" viewBox="0 0 200 200" fill="none" xmlns="http://www.w3.org/2000/svg">
<g clip-path="url(#clip0_2_3)">
<path d="M36.1878 190.129C36.1878 191.677 34.9219 192.932 33.3632 192.932H27.4231C25.8626 192.932 24.5984 191.678 24.5984 190.129V188.835C24.5984 187.287 25.8625 186.033 27.4231 186.033H33.3632C34.9219 186.033 36.1878 187.287 36.1878 188.835V190.129Z" fill="black"/>
<path d="M10.3211 179.233H9.82449C8.26575 179.233 6.99988 180.489 6.99988 182.036V185.907C6.99988 187.455 7.72739 188.711 8.97324 188.711H9.28427C10.632 188.711 10.3209 189.965 10.3209 191.513V193.329C10.3211 194.875 11.5869 196.131 13.1457 196.131H17.4635C19.024 196.131 20.2881 194.875 20.2881 193.329V188.711V182.036C20.2881 180.489 19.0241 179.233 17.4635 179.233L10.3211 179.233Z" fill="black"/>
<path d="M45.4072 155.645C44.0777 155.645 42.9282 156.565 42.6481 157.853L41.0694 165.075C40.7893 166.363 39.638 167.284 38.3084 167.284H20.6209C19.0622 167.284 17.7963 168.54 17.7963 170.086V172.208C17.7963 173.755 19.0622 175.011 20.6209 175.011H21.2011C22.7598 175.011 24.0257 176.267 24.0257 177.815V179.21C24.0257 180.756 25.2916 182.012 26.8503 182.012H48.7484C50.0743 182.012 51.2219 181.096 51.5075 179.807L56.0836 159.044C56.2673 158.218 56.0617 157.352 55.5252 156.691C54.9887 156.027 54.1793 155.645 53.3227 155.645H45.4072Z" fill="black"/>
<path d="M62.8238 149.56C62.5691 150.879 61.4069 151.833 60.0483 151.833H47.7662C46.9241 151.833 46.1238 151.463 45.5908 150.819C45.0525 150.173 44.8324 149.325 44.9907 148.506L46.7658 139.277C47.0205 137.956 48.1845 137 49.5413 137H61.8253C62.6673 137 63.464 137.372 64.0006 138.018C64.539 138.662 64.7572 139.51 64.599 140.331L62.8238 149.56Z" fill="black"/>
</g>
<g clip-path="url(#clip1_2_3)">
<path d="M157.892 82L154.569 85.2946V87.898H151V96.1553H154.569V105.592H151V110.311H154.569V118.568H187.879V82H157.892ZM152.19 94.9757V89.0776H159.328V94.9757H152.19ZM152.19 109.131V106.772H159.328V109.131H152.19ZM186.689 117.388H155.759V110.311H160.517V108.541H161.707V107.362H160.517V105.592H155.759V96.1553H160.517V94.9757H161.707V93.7961H160.517V90.2573H161.707V89.0776H160.517V87.898H155.759V85.783L158.384 83.1796H186.689V117.388Z" fill="black"/>
<path d="M173.603 115.029H181.931V113.85H183.12V112.67H181.931V111.49H183.12V110.311H181.931V109.131H183.12V107.951H181.931V106.772H183.12V105.592H181.931V104.413H183.12V103.233H181.931V102.053H183.12V100.874H181.931V99.6942H183.12V98.5146H181.931V97.335H183.12V96.1554H181.931V94.9758H183.12V93.7962H181.931V92.6166H183.12V91.437H181.931V90.2574H183.12V89.0778H181.931V87.8982H183.12V86.7185H181.931V85.5389H173.603V86.7185H172.414V87.8982H173.603V89.0778H172.414V90.2574H173.603V91.437H172.414V92.6166H173.603V93.7962H172.414V94.9758H173.603V96.1554H172.414V97.335H173.603V98.5146H172.414V99.6942H173.603V100.874H172.414V102.053H173.603V103.233H172.414V104.413H173.603V105.592H172.414V106.772H173.603V107.951H172.414V109.131H173.603V110.311H172.414V111.49H173.603V112.67H172.414V113.85H173.603V115.029ZM174.793 86.7185H180.741V113.85H174.793V86.7185Z" fill="black"/>
<path d="M177.767 89.0777C178.096 89.0777 178.362 88.8136 178.362 88.4879C178.362 88.1621 178.096 87.8981 177.767 87.8981C177.439 87.8981 177.172 88.1621 177.172 88.4879C177.172 88.8136 177.439 89.0777 177.767 89.0777Z" fill="black"/>
<path d="M170.034 86.7185H165.276V90.2573H170.034V86.7185ZM168.845 89.0777H166.465V87.8981H168.845V89.0777Z" fill="black"/>
<path d="M170.034 92.6166H165.276V96.1554H170.034V92.6166ZM168.845 94.9758H166.465V93.7962H168.845V94.9758Z" fill="black"/>
<path d="M161.707 97.9247V99.1043H160.517V97.9247H159.327V99.1043H158.138V102.643H159.327V103.823H160.517V102.643H161.707V103.823H162.896V102.643H164.086V103.823H165.276V102.643H166.465V99.1043H165.276V97.9247H164.086V99.1043H162.896V97.9247H161.707ZM165.276 100.284V101.464H159.327V100.284H165.276Z" fill="black"/>
<path d="M159.327 111.49C158.015 111.49 156.948 112.548 156.948 113.849C156.948 115.151 158.015 116.209 159.327 116.209C160.64 116.209 161.707 115.151 161.707 113.849C161.707 112.548 160.64 111.49 159.327 111.49ZM159.327 115.029C158.671 115.029 158.138 114.5 158.138 113.849C158.138 113.199 158.671 112.67 159.327 112.67C159.983 112.67 160.517 113.199 160.517 113.849C160.517 114.5 159.983 115.029 159.327 115.029Z" fill="black"/>
<path d="M165.276 111.49C163.964 111.49 162.896 112.548 162.896 113.849C162.896 115.151 163.964 116.209 165.276 116.209C166.588 116.209 167.655 115.151 167.655 113.849C167.655 112.548 166.588 111.49 165.276 111.49ZM165.276 115.029C164.62 115.029 164.086 114.5 164.086 113.849C164.086 113.199 164.62 112.67 165.276 112.67C165.931 112.67 166.465 113.199 166.465 113.849C166.465 114.5 165.931 115.029 165.276 115.029Z" fill="black"/>
<path d="M165.276 106.772H164.086V109.131H165.276V106.772Z" fill="black"/>
<path d="M167.655 106.772H166.465V109.131H167.655V106.772Z" fill="black"/>
<path d="M170.034 106.772H168.845V109.131H170.034V106.772Z" fill="black"/>
<path d="M158.138 86.1287C158.466 86.1287 158.733 85.8646 158.733 85.5389C158.733 85.2132 158.466 84.9491 158.138 84.9491C157.809 84.9491 157.543 85.2132 157.543 85.5389C157.543 85.8646 157.809 86.1287 158.138 86.1287Z" fill="black"/>
</g>
<path d="M157.185 164.197C162.532 161.499 164.776 158.029 164.873 154.623C163.132 155.015 161.293 154.152 160.479 152.416C159.664 150.676 160.146 148.643 161.522 147.466C158.88 145.437 154.866 145.129 149.516 147.828C147.59 148.8 145.825 150.364 144.26 152.148C145.12 149.913 145.7 147.585 145.7 145.367C145.7 139.195 143.678 135.583 140.769 134.004C140.347 135.8 138.797 137.138 136.936 137.138C135.074 137.138 133.523 135.798 133.101 134C130.191 135.581 128.168 139.191 128.168 145.366C128.168 147.583 128.748 149.911 129.607 152.146C128.044 150.362 126.279 148.799 124.354 147.827C119.005 145.128 114.991 145.436 112.35 147.465C113.725 148.642 114.208 150.676 113.393 152.415C112.576 154.152 110.739 155.014 109 154.622C109.097 158.029 111.341 161.498 116.686 164.196C119.847 165.79 123.947 166.055 127.632 165.83C124.463 167.488 121.242 169.73 119.336 172.588C115.952 177.665 115.637 181.83 117.165 184.849C118.497 183.617 120.506 183.432 122.037 184.532C123.567 185.632 124.107 187.648 123.47 189.374C126.728 189.794 130.372 188.019 133.755 182.945C135.677 180.061 136.563 176.097 136.936 172.405C137.309 176.097 138.194 180.061 140.116 182.945C143.499 188.019 147.144 189.794 150.401 189.374C149.764 187.648 150.304 185.632 151.836 184.532C153.368 183.432 155.375 183.617 156.708 184.849C158.236 181.829 157.921 177.665 154.536 172.588C152.63 169.729 149.409 167.488 146.24 165.83C149.924 166.055 154.025 165.79 157.185 164.197ZM152.374 171.253C155.344 175.707 155.62 179.36 154.28 182.011C153.111 180.929 151.349 180.766 150.006 181.732C148.663 182.697 148.189 184.466 148.747 185.981C145.89 186.348 142.692 184.791 139.725 180.34C138.038 177.81 137.261 174.331 136.936 171.092C136.608 174.331 135.831 177.81 134.146 180.34C131.177 184.791 127.98 186.349 125.123 185.981C125.682 184.466 125.209 182.697 123.864 181.732C122.522 180.766 120.759 180.929 119.592 182.011C118.252 179.361 118.527 175.708 121.496 171.253C122.977 169.031 125.363 167.237 127.823 165.845C128.037 166.345 128.496 166.712 129.058 166.757C129.877 166.823 130.591 166.19 130.657 165.341C130.659 165.317 130.654 165.294 130.655 165.27L134.362 163.597C134.551 163.876 134.784 164.117 135.046 164.321L133.318 168.124C133.296 168.124 133.274 168.119 133.253 168.12C132.432 168.161 131.799 168.882 131.839 169.733C131.875 170.585 132.57 171.241 133.392 171.202C134.213 171.161 134.846 170.44 134.806 169.589C134.791 169.26 134.673 168.944 134.467 168.686L136.194 164.888C136.434 164.947 136.679 164.987 136.936 164.987C137.157 164.987 137.373 164.963 137.582 164.917L139.192 168.764C138.98 169.016 138.853 169.327 138.828 169.654C138.763 170.503 139.375 171.245 140.194 171.311C141.012 171.377 141.727 170.743 141.789 169.893C141.852 169.043 141.243 168.302 140.425 168.237C140.402 168.235 140.38 168.239 140.358 168.239L138.745 164.387C139.014 164.19 139.247 163.947 139.444 163.675L143.109 165.47C143.109 165.493 143.104 165.515 143.105 165.537C143.141 166.39 143.836 167.046 144.656 167.008C145.333 166.974 145.873 166.478 146.024 165.831C148.492 167.227 150.889 169.025 152.374 171.253ZM146.068 165.366C146.014 164.53 145.33 163.888 144.519 163.927C144.199 163.945 143.894 164.069 143.651 164.278L139.99 162.484C140.049 162.237 140.087 161.984 140.087 161.719C140.087 161.488 140.063 161.263 140.019 161.045L143.723 159.374C143.956 159.585 144.249 159.728 144.582 159.754C145.4 159.818 146.115 159.185 146.179 158.335C146.244 157.486 145.631 156.744 144.813 156.678C143.994 156.61 143.28 157.246 143.218 158.096C143.216 158.118 143.219 158.14 143.219 158.162L139.508 159.837C139.319 159.562 139.088 159.317 138.823 159.112L140.551 155.311C140.574 155.311 140.596 155.316 140.618 155.315C141.439 155.274 142.072 154.554 142.035 153.703C141.995 152.851 141.3 152.194 140.482 152.234C139.661 152.274 139.028 152.995 139.065 153.846C139.082 154.19 139.208 154.498 139.402 154.746L137.674 158.548C137.433 158.484 137.186 158.45 136.936 158.447C136.715 158.447 136.498 158.472 136.288 158.518L134.678 154.673C134.882 154.431 135.019 154.125 135.046 153.78C135.108 152.931 134.497 152.189 133.678 152.124C132.86 152.058 132.146 152.691 132.081 153.541C132.018 154.391 132.631 155.132 133.449 155.199C133.47 155.201 133.492 155.198 133.513 155.198L135.125 159.048C134.857 159.248 134.622 159.488 134.427 159.759L130.763 157.965C130.763 157.942 130.768 157.918 130.767 157.895C130.729 157.044 130.034 156.387 129.214 156.428C128.393 156.467 127.76 157.188 127.8 158.04C127.837 158.892 128.531 159.548 129.352 159.508C129.683 159.491 129.982 159.36 130.221 159.157L133.881 160.95C133.819 161.202 133.787 161.46 133.784 161.719C133.784 161.949 133.808 162.172 133.851 162.389L130.147 164.063C129.912 163.845 129.61 163.711 129.289 163.684C128.471 163.617 127.757 164.253 127.692 165.102C127.686 165.194 127.69 165.283 127.699 165.373C124.763 165.456 121.641 165.138 119.174 163.893C114.483 161.525 112.513 158.483 112.43 155.494C113.954 155.837 115.567 155.081 116.284 153.557C116.999 152.031 116.574 150.248 115.37 149.215C117.685 147.436 121.206 147.164 125.899 149.533C127.587 150.386 129.137 151.757 130.507 153.322C129.754 151.36 129.246 149.32 129.246 147.374C129.246 141.958 131.019 138.791 133.574 137.404C133.943 138.981 135.303 140.156 136.936 140.156C138.57 140.156 139.928 138.982 140.299 137.405C142.851 138.791 144.626 141.96 144.626 147.373C144.626 149.318 144.117 151.359 143.365 153.319C144.735 151.755 146.284 150.384 147.972 149.532C152.665 147.164 156.184 147.435 158.503 149.214C157.296 150.247 156.874 152.03 157.589 153.556C158.304 155.079 159.915 155.836 161.443 155.493C161.359 158.481 159.39 161.525 154.699 163.892C152.201 165.154 149.035 165.462 146.068 165.366Z" fill="black"/>
<path d="M46.7768 14.7446C46.7768 14.7446 39.5735 13.6783 33.9161 13.6783C32.6518 13.6783 31.466 13.7318 30.4536 13.862C28.004 14.2009 26.728 15.8304 26.038 17.0292C24.086 18.3938 14.3709 24.6074 13.2525 28.8392C13.096 29.4324 13.0606 30.8599 13.2525 31.4242C13.6934 32.7176 15.1545 34.1289 16.3162 34.9142L15.3228 38.2856H13.1218V41.5045H46.7768V38.285H44.9622C45.5686 37.7335 45.9803 36.9394 46.0712 36.0406H46.7768V32.835H30.969C30.969 32.835 24.0967 34.6849 19.8763 34.6849C19.7793 34.6849 19.6828 34.6838 19.588 34.6815C18.5116 34.6593 17.9395 34.5135 17.6489 34.3949C16.7745 34.0393 14.7658 32.3898 14.3154 31.068C14.2184 30.7781 14.215 29.5849 14.3379 29.1208C15.2409 25.7037 23.2598 20.2654 25.8956 18.4784C26.3157 18.1929 26.6034 17.9986 26.8065 17.8523L36.116 17.0887L36.1104 14.8493C36.2506 14.8559 36.3892 14.861 36.5317 14.8687V17.0397L41.4963 16.5545C40.2881 16.7676 39.085 17.0119 37.8936 17.3019C34.9796 18.002 32.1133 18.8891 29.2902 19.9064C26.4772 20.9488 23.6973 22.1108 21.052 23.5728C19.7316 24.3024 18.4415 25.1077 17.2574 26.0705C16.6746 26.5619 16.1143 27.09 15.6431 27.7011C15.1804 28.2999 14.7782 29.0423 14.8449 29.8186C14.8965 29.049 15.361 28.4184 15.8529 27.8858C16.3611 27.3521 16.9512 26.9019 17.5626 26.4901C18.7803 25.6553 20.0951 24.9663 21.4234 24.313C24.0944 23.0302 26.8536 21.9249 29.6442 20.9132C32.4325 19.8891 35.2584 18.9664 38.1034 18.1099C39.5275 17.6898 40.9562 17.2802 42.3977 16.9229C43.837 16.5595 45.2865 16.2128 46.7763 16.1343C46.0325 16.038 45.2764 16.0781 44.5309 16.1415C44.0887 16.1808 43.6474 16.2291 43.2071 16.2862C41.8663 15.8118 40.5042 15.3985 39.1253 15.0474C42.313 15.309 45.416 15.7024 46.7768 15.8827V14.7446ZM41.9462 36.0406C42.0892 36.4852 42.4757 36.8069 42.9357 36.8069C43.3934 36.8069 43.781 36.4852 43.9245 36.0406H45.0049C44.8388 37.1191 43.9773 37.9461 42.9362 37.9461C41.894 37.9461 41.0325 37.1191 40.8676 36.0406H41.9462ZM39.8001 36.0406C39.8904 36.9394 40.3021 37.7335 40.9085 38.285H38.2144C38.8208 37.7335 39.2319 36.9394 39.3228 36.0406H39.8001ZM35.1972 36.0406C35.3408 36.4852 35.7273 36.8069 36.1867 36.8069C36.6444 36.8069 37.032 36.4852 37.1756 36.0406H38.2559C38.0899 37.1191 37.2289 37.9461 36.1873 37.9461C35.1451 37.9461 34.2835 37.1191 34.1186 36.0406H35.1972ZM33.0512 36.0406C33.1415 36.9394 33.5532 37.7335 34.1595 38.285H31.4655C32.0718 37.7335 32.483 36.9394 32.5738 36.0406H33.0512ZM30.4272 36.0406H31.5075C31.3415 37.1191 30.4805 37.9461 29.4389 37.9461C29.1221 37.9434 28.8109 37.8631 28.533 37.7124C28.7736 37.3963 28.9952 37.0785 29.1977 36.7707C29.2751 36.7924 29.3547 36.8069 29.4394 36.8069C29.8966 36.8069 30.2836 36.4847 30.4272 36.0406ZM29.2554 34.184C28.3064 35.8786 26.3735 38.9406 24.2577 39.7509V38.9172C23.8656 38.7815 23.5734 38.3156 23.5734 37.7513C23.5734 37.1881 23.8656 36.7223 24.2577 36.5871V35.7501C23.5038 35.8525 22.9137 36.7045 22.9137 37.7513C22.9137 38.797 23.5021 39.6463 24.2543 39.7526C23.9183 39.88 23.5795 39.9568 23.2374 39.9568H15.9987L17.3578 35.4557C20.2466 36.419 26.8929 34.8129 29.2554 34.184Z" fill="black"/>
<path d="M30.4413 30.3672H46.7769V23.8164H39.7699C39.7699 23.8164 30.4413 23.8164 30.4413 30.3672Z" fill="black"/>
<path d="M17.9755 28.537C17.6984 28.537 17.4729 28.9065 17.4729 29.3629C17.4729 29.8192 17.6978 30.1887 17.9755 30.1887H23.2122C23.4887 30.1887 23.7148 29.8192 23.7148 29.3629C23.7148 28.9065 23.4887 28.537 23.2122 28.537H17.9755Z" fill="black"/>
<path d="M20.6286 39.5033V38.8588C20.2982 38.7748 20.0469 38.3964 20.0469 37.9339C20.0469 37.4714 20.2982 37.093 20.6286 37.0084V36.3645C20.0374 36.4458 19.5746 37.1125 19.5746 37.9339C19.5746 38.7548 20.0374 39.4232 20.6286 39.5033Z" fill="black"/>
<path d="M18.0343 38.8722V38.4203C17.7814 38.3796 17.5834 38.0991 17.5834 37.7513C17.5834 37.4046 17.7814 37.1241 18.0343 37.0835V36.6316C17.6131 36.69 17.2827 37.1664 17.2827 37.7513C17.2827 38.3373 17.6131 38.8132 18.0343 38.8722Z" fill="black"/>
<path d="M170.491 9.49963C170.491 9.49963 162.491 11.375 147.995 11.375C133.501 11.375 125.5 9.49963 125.5 9.49963L126.091 13.2481C126.091 13.2481 126.409 13.3261 127.025 13.4498L127.542 16.3292L128.003 16.4297C128.095 16.45 128.891 16.6179 130.354 16.8346V18.6395H131.124V21.6727C129.746 21.2632 129.015 20.7473 129.015 20.7473L129.183 23.5593H127.609V28.4805H131.124V45.3521H129.952V47.4614H129.015V54.4905H140.263V47.4607H139.325V45.3513H138.153V28.4798H157.837V45.3513H156.665V47.4607H155.728V54.4905H166.975V47.4607H166.038V45.3513H164.867V28.4798H168.382V23.5593H166.808L166.976 20.7473C166.976 20.7473 166.244 21.2632 164.867 21.6712V18.638H165.504V16.8519C167.049 16.6269 167.893 16.4492 167.988 16.429L168.448 16.3285L168.965 13.4491C169.583 13.3254 169.9 13.2474 169.9 13.2474L170.491 9.49963ZM145.887 17.9204V23.5593H140.095L140.263 20.7473C140.263 20.7473 139.531 21.2632 138.153 21.6712V18.638H138.791V17.667C140.865 17.7937 143.225 17.8874 145.887 17.9204ZM136.747 18.6388V21.9906C136.121 22.0933 135.42 22.1616 134.638 22.1616C133.856 22.1616 133.155 22.0933 132.529 21.9898V18.6388H136.747ZM136.747 45.3521H132.53V28.4805H136.747V45.3521ZM163.461 45.3521H159.243V28.4805H163.461V45.3521ZM166.976 24.9652V27.0746H129.015V24.9652H166.976ZM159.243 21.9891V18.638H163.461V21.9898C162.835 22.0926 162.134 22.1608 161.351 22.1608C160.569 22.1608 159.869 22.0926 159.243 21.9891ZM157.837 18.6388V21.6719C156.459 21.2632 155.728 20.7473 155.728 20.7473L155.896 23.5593H150.104V17.9204C152.427 17.8935 154.749 17.8115 157.068 17.6745V18.638L157.837 18.6388ZM167.245 15.0583C165.513 15.3777 158.917 16.4447 147.995 16.4447C137.089 16.4447 130.48 15.3777 128.745 15.0583L128.504 13.7205C131.779 14.2762 138.35 15.1235 147.995 15.1235C157.64 15.1235 164.211 14.2762 167.485 13.7205L167.245 15.0583Z" fill="black"/>
<path d="M67.684 63.1284C67.8659 63.0053 68.1041 63.0005 68.2905 63.1167C68.4767 63.233 68.5768 63.4481 68.5463 63.6656C68.2866 65.5164 68.1317 67.3724 68.3276 69.0493C68.5107 70.6167 68.9957 71.9909 69.9565 73.0572L70.1547 73.2661L70.2123 73.3345C70.7831 74.1272 71.2579 74.658 71.8207 75.1158C72.3161 75.5186 72.8968 75.8754 73.7026 76.3042C75.6055 74.3267 78.3044 72.3372 80.7026 70.8716C81.9675 70.0986 83.1647 69.4607 84.1342 69.0435C84.6176 68.8355 85.0593 68.6768 85.4321 68.5845C85.6183 68.5384 85.7996 68.5058 85.9682 68.4956C86.0901 68.4883 86.2268 68.4914 86.3627 68.521L86.4985 68.5601L86.5698 68.5923C86.6391 68.6297 86.7004 68.6816 86.7485 68.7447C86.9479 69.0065 87.0809 69.3694 87.1782 69.7534C87.2787 70.1506 87.3544 70.6279 87.4077 71.1626C87.5142 72.2336 87.536 73.5794 87.4741 75.063C87.3541 77.9346 86.9152 81.3726 86.1352 84.4185C88.0893 86.4825 89.5116 88.6429 90.1909 90.9624C90.8984 93.3785 90.7889 95.9258 89.6997 98.649L89.6987 98.6509C88.5384 101.518 86.81 103.31 84.4809 104.444C82.2147 105.547 79.4091 106.011 76.0932 106.306C74.7617 107.16 73.5011 107.934 71.9516 108.489C70.3517 109.062 68.4718 109.396 65.9038 109.396C63.3354 109.396 61.4549 109.062 59.8549 108.489C58.3054 107.934 57.0449 107.16 55.7133 106.306C52.3974 106.011 49.5918 105.547 47.3256 104.444C44.9965 103.31 43.2691 101.518 42.1088 98.6509L42.1079 98.649C41.0186 95.9257 40.909 93.3786 41.6166 90.9624C42.2958 88.6434 43.7168 86.4831 45.6704 84.4195C44.8903 81.3734 44.4525 77.9348 44.3325 75.063C44.2705 73.5794 44.2923 72.2336 44.3989 71.1626C44.4521 70.6279 44.5278 70.1506 44.6284 69.7534C44.7257 69.3693 44.8595 69.0065 45.059 68.7447L45.1108 68.6851C45.1669 68.6299 45.2346 68.5875 45.309 68.5601C45.4876 68.4943 45.6758 68.4859 45.8383 68.4956C46.0071 68.5058 46.189 68.5384 46.3754 68.5845C46.748 68.6768 47.1891 68.8356 47.6723 69.0435C48.6419 69.4607 49.8389 70.0986 51.1039 70.8716C53.5019 72.337 56.2 74.3269 58.103 76.3042C58.9092 75.8752 59.4903 75.5187 59.9858 75.1158C60.5455 74.6605 61.0179 74.1327 61.5844 73.3472C63.1165 71.0797 63.1899 68.8147 63.1899 66.4654C63.19 66.281 63.2814 66.1087 63.434 66.0054L67.684 63.1284ZM64.2993 66.7622C64.2919 69.0395 64.1712 71.5062 62.5063 73.9702C62.5032 73.9748 62.4998 73.9794 62.4965 73.9839C61.8904 74.8257 61.351 75.4387 60.6879 75.9781C60.0298 76.5133 59.2692 76.9595 58.2456 77.4878C58.023 77.6025 57.751 77.554 57.5815 77.3697C55.7659 75.3949 53.001 73.3337 50.5239 71.8199C49.2877 71.0645 48.1391 70.4549 47.2329 70.065C46.7783 69.8694 46.3987 69.7356 46.1079 69.6636C45.9993 69.6367 45.9098 69.6214 45.8383 69.6128C45.7961 69.7136 45.7512 69.8493 45.7065 70.0259C45.6239 70.3518 45.5553 70.7709 45.5053 71.273C45.4055 72.276 45.3832 73.5665 45.4438 75.0171C45.565 77.9187 46.0176 81.4086 46.8227 84.4361C46.8728 84.6246 46.8207 84.8262 46.685 84.9663C44.696 87.0195 43.3196 89.1015 42.6831 91.2749C42.0503 93.4356 42.1367 95.7266 43.1391 98.2339L43.3442 98.7144C44.397 101.055 45.873 102.5 47.812 103.444C49.9123 104.467 52.587 104.919 55.9467 105.212C56.0365 105.22 56.1229 105.251 56.1987 105.299C57.5709 106.181 58.7669 106.918 60.2299 107.442C61.687 107.964 63.4369 108.284 65.9038 108.284C68.3704 108.284 70.1196 107.964 71.5766 107.442C73.0397 106.918 74.2357 106.181 75.6079 105.299L75.6665 105.266C75.727 105.237 75.7925 105.218 75.8598 105.212C79.2195 104.919 81.8942 104.467 83.9946 103.444C86.0631 102.437 87.6054 100.86 88.6684 98.2339C89.6708 95.7267 89.7562 93.4355 89.1235 91.2749C88.487 89.1014 87.1106 87.0196 85.1215 84.9663C84.9859 84.8262 84.9337 84.6245 84.9838 84.4361C85.789 81.4086 86.2425 77.9187 86.3637 75.0171C86.4243 73.5665 86.401 72.2761 86.3012 71.273C86.2513 70.7709 86.1836 70.3518 86.101 70.0259C86.0562 69.8489 86.0095 69.7136 85.9672 69.6128C85.8959 69.6215 85.8065 69.6369 85.6987 69.6636C85.4078 69.7356 85.0281 69.8694 84.5737 70.065C83.6674 70.455 82.5188 71.0645 81.2827 71.8199C78.8054 73.3337 76.0407 75.3948 74.225 77.3697C74.0555 77.5541 73.7836 77.6027 73.561 77.4878C72.5374 76.9595 71.7777 76.5133 71.1196 75.9781C70.4653 75.4459 69.9317 74.8418 69.3354 74.0171C68.0324 72.6953 67.4347 70.9895 67.2231 69.1783C67.0562 67.7497 67.1275 66.2302 67.2924 64.7359L64.2993 66.7622Z" fill="black"/>
<path d="M57.982 76.5487C58.228 76.4357 58.5191 76.5432 58.6324 76.789C58.7454 77.035 58.638 77.3262 58.3921 77.4394C53.5922 79.6447 50.9522 81.2552 46.6753 85.0136C46.4719 85.1924 46.1618 85.172 45.983 84.9687C45.8042 84.7652 45.8236 84.4551 46.0269 84.2763C50.3817 80.4494 53.1042 78.7899 57.982 76.5487ZM73.1744 76.789C73.2876 76.5431 73.5787 76.4357 73.8248 76.5487C78.7026 78.7899 81.425 80.4493 85.7798 84.2763C85.9833 84.4551 86.0026 84.7652 85.8238 84.9687C85.645 85.1719 85.3358 85.192 85.1324 85.0136C80.8555 81.2551 78.2146 79.6448 73.4146 77.4394C73.1688 77.3261 73.0613 77.035 73.1744 76.789Z" fill="black"/>
<defs>
<clipPath id="clip0_2_3">
<rect width="59.5978" height="59.131" fill="white" transform="translate(7 137)"/>
</clipPath>
<clipPath id="clip1_2_3">
<rect width="36.879" height="36.5678" fill="white" transform="translate(151 82)"/>
</clipPath>
</defs>
</svg>
