<svg xmlns="http://www.w3.org/2000/svg" width="200" height="200" fill="none" viewBox="0 0 200 200"><g fill="#000" clip-path="url(#a)"><path d="m157.892 82-3.323 3.295v2.603H151v8.257h3.569v9.437H151v4.719h3.569v8.257h33.31V82zm-5.702 12.976v-5.898h7.138v5.898zm0 14.155v-2.359h7.138v2.359zm34.499 8.257h-30.93v-7.077h4.758v-1.77h1.19v-1.179h-1.19v-1.77h-4.758v-9.437h4.758v-1.18h1.19v-1.179h-1.19v-3.539h1.19v-1.18h-1.19v-1.179h-4.758v-2.115l2.625-2.603h28.305z"/><path d="M173.603 115.029h8.328v-1.179h1.189v-1.18h-1.189v-1.18h1.189v-1.179h-1.189v-1.18h1.189v-1.18h-1.189v-1.179h1.189v-1.18h-1.189v-1.179h1.189v-1.18h-1.189v-1.18h1.189v-1.179h-1.189v-1.18h1.189v-1.18h-1.189v-1.179h1.189v-1.18h-1.189v-1.18h1.189v-1.179h-1.189v-1.18h1.189v-1.179h-1.189v-1.18h1.189v-1.18h-1.189v-1.179h1.189v-1.18h-1.189v-1.18h-8.328v1.18h-1.189v1.18h1.189v1.18h-1.189v1.18h1.189v1.179h-1.189v1.18h1.189v1.18h-1.189v1.179h1.189v1.18h-1.189v1.179h1.189v1.18h-1.189v1.18h1.189v1.179h-1.189v1.179h1.189v1.18h-1.189v1.18h1.189v1.179h-1.189v1.18h1.189v1.179h-1.189v1.18h1.189v1.18h-1.189v1.179h1.189v1.18h-1.189v1.18h1.189zm1.19-28.31h5.948v27.131h-5.948z"/><path d="M177.767 89.078a.59.59 0 0 0 .595-.59.59.59 0 0 0-.595-.59.593.593 0 0 0-.595.59c0 .326.267.59.595.59m-7.733-2.359h-4.758v3.538h4.758zm-1.189 2.359h-2.38v-1.18h2.38zm1.189 3.539h-4.758v3.538h4.758zm-1.189 2.359h-2.38v-1.18h2.38zm-7.138 2.949v1.18h-1.19v-1.18h-1.19v1.18h-1.189v3.538h1.189v1.18h1.19v-1.18h1.19v1.18h1.189v-1.18h1.19v1.18h1.19v-1.18h1.189v-3.539h-1.189v-1.18h-1.19v1.18h-1.19v-1.18zm3.569 2.359v1.18h-5.949v-1.18zm-5.949 11.206a2.37 2.37 0 0 0-2.379 2.359 2.37 2.37 0 0 0 2.379 2.36 2.37 2.37 0 0 0 2.38-2.36c0-1.301-1.067-2.359-2.38-2.359m0 3.539a1.185 1.185 0 0 1-1.189-1.18c0-.65.533-1.179 1.189-1.179s1.19.529 1.19 1.179c0 .651-.534 1.18-1.19 1.18m5.949-3.539c-1.312 0-2.38 1.058-2.38 2.359a2.373 2.373 0 0 0 2.38 2.36 2.37 2.37 0 0 0 2.379-2.36 2.37 2.37 0 0 0-2.379-2.359m0 3.539c-.656 0-1.19-.529-1.19-1.18s.534-1.179 1.19-1.179 1.189.529 1.189 1.179c0 .651-.534 1.18-1.189 1.18m0-8.257h-1.19v2.359h1.19zm2.379 0h-1.19v2.359h1.19zm2.379 0h-1.189v2.359h1.189zm-11.896-20.643a.593.593 0 0 0 .595-.59.593.593 0 0 0-.595-.59.59.59 0 0 0-.595.59c0 .326.266.59.595.59"/></g><path fill="#000" d="M157.185 164.197c5.347-2.698 7.591-6.168 7.688-9.574-1.741.392-3.58-.471-4.394-2.207-.815-1.74-.333-3.773 1.043-4.95-2.642-2.029-6.656-2.337-12.006.362-1.926.972-3.691 2.536-5.256 4.32.86-2.235 1.44-4.563 1.44-6.781 0-6.172-2.022-9.784-4.931-11.363-.422 1.796-1.972 3.134-3.833 3.134s-3.413-1.34-3.835-3.138c-2.91 1.581-4.933 5.191-4.933 11.366 0 2.217.58 4.545 1.439 6.78-1.563-1.784-3.328-3.347-5.253-4.319-5.349-2.699-9.363-2.391-12.004-.362 1.375 1.177 1.858 3.211 1.043 4.95-.817 1.737-2.654 2.599-4.393 2.207.097 3.407 2.341 6.876 7.686 9.574 3.161 1.594 7.261 1.859 10.946 1.634-3.169 1.658-6.39 3.9-8.296 6.758-3.384 5.077-3.699 9.242-2.171 12.261 1.332-1.232 3.341-1.417 4.872-.317s2.07 3.116 1.433 4.842c3.258.42 6.902-1.355 10.285-6.429 1.922-2.884 2.808-6.848 3.181-10.54.373 3.692 1.258 7.656 3.18 10.54 3.383 5.074 7.028 6.849 10.285 6.429-.637-1.726-.097-3.742 1.435-4.842s3.539-.915 4.872.317c1.528-3.02 1.213-7.184-2.172-12.261-1.906-2.859-5.127-5.1-8.296-6.758 3.684.225 7.785-.04 10.945-1.633m-4.811 7.056c2.97 4.454 3.246 8.107 1.906 10.758-1.169-1.082-2.931-1.245-4.274-.279-1.343.965-1.817 2.734-1.259 4.249-2.857.367-6.055-1.19-9.022-5.641-1.687-2.53-2.464-6.009-2.789-9.248-.328 3.239-1.105 6.718-2.79 9.248-2.969 4.451-6.166 6.009-9.023 5.641.559-1.515.086-3.284-1.259-4.249-1.342-.966-3.105-.803-4.272.279-1.34-2.65-1.065-6.303 1.904-10.758 1.481-2.222 3.867-4.016 6.327-5.408.214.5.673.867 1.235.912.819.066 1.533-.567 1.599-1.416.002-.024-.003-.047-.002-.071l3.707-1.673c.189.279.422.52.684.724l-1.728 3.803c-.022 0-.044-.005-.065-.004-.821.041-1.454.762-1.414 1.613.036.852.731 1.508 1.553 1.469.821-.041 1.454-.762 1.414-1.613a1.56 1.56 0 0 0-.339-.903l1.727-3.798c.24.059.485.099.742.099q.332 0 .646-.07l1.61 3.847a1.57 1.57 0 0 0-.364.89c-.065.849.547 1.591 1.366 1.657.818.066 1.533-.568 1.595-1.418s-.546-1.591-1.364-1.656c-.023-.002-.045.002-.067.002l-1.613-3.852c.269-.197.502-.44.699-.712l3.665 1.795c0 .023-.005.045-.004.067.036.853.731 1.509 1.551 1.471.677-.034 1.217-.53 1.368-1.177 2.468 1.396 4.865 3.194 6.35 5.422m-6.306-5.887c-.054-.836-.738-1.478-1.549-1.439-.32.018-.625.142-.868.351l-3.661-1.794c.059-.247.097-.5.097-.765q-.001-.347-.068-.674l3.704-1.671c.233.211.526.354.859.38.818.064 1.533-.569 1.597-1.419.065-.849-.548-1.591-1.366-1.657-.819-.068-1.533.568-1.595 1.418q-.001.033.001.066l-3.711 1.675a3.2 3.2 0 0 0-.685-.725l1.728-3.801c.023 0 .045.005.067.004.821-.041 1.454-.761 1.417-1.612-.04-.852-.735-1.509-1.553-1.469-.821.04-1.454.761-1.417 1.612.017.344.143.652.337.9l-1.728 3.802a3 3 0 0 0-.738-.101q-.332.001-.648.071l-1.61-3.845a1.57 1.57 0 0 0 .368-.893c.062-.849-.549-1.591-1.368-1.656-.818-.066-1.532.567-1.597 1.417-.063.85.55 1.591 1.368 1.658q.032.001.064-.001l1.612 3.85c-.268.2-.503.44-.698.711l-3.664-1.794c0-.023.005-.047.004-.07-.038-.851-.733-1.508-1.553-1.467-.821.039-1.454.76-1.414 1.612.037.852.731 1.508 1.552 1.468.331-.017.63-.148.869-.351l3.66 1.793q-.093.38-.097.769.001.345.067.67l-3.704 1.674a1.44 1.44 0 0 0-.858-.379c-.818-.067-1.532.569-1.597 1.418a1.6 1.6 0 0 0 .007.271c-2.936.083-6.058-.235-8.525-1.48-4.691-2.368-6.661-5.41-6.744-8.399 1.524.343 3.137-.413 3.854-1.937a3.686 3.686 0 0 0-.914-4.342c2.315-1.779 5.836-2.051 10.529.318 1.688.853 3.238 2.224 4.608 3.789-.753-1.962-1.261-4.002-1.261-5.948 0-5.416 1.773-8.583 4.328-9.97.369 1.577 1.729 2.752 3.362 2.752s2.992-1.174 3.363-2.751c2.552 1.386 4.327 4.555 4.327 9.968 0 1.945-.509 3.986-1.261 5.946 1.37-1.564 2.919-2.935 4.607-3.787 4.693-2.368 8.212-2.097 10.531-.318-1.207 1.033-1.629 2.816-.914 4.342.715 1.523 2.326 2.28 3.854 1.937-.084 2.988-2.053 6.032-6.744 8.399-2.498 1.262-5.664 1.57-8.631 1.474M46.777 14.745s-7.203-1.067-12.86-1.067c-1.265 0-2.451.054-3.463.184-2.45.339-3.726 1.968-4.416 3.167-1.952 1.365-11.667 7.578-12.785 11.81-.157.593-.192 2.02 0 2.585.44 1.294 1.902 2.705 3.063 3.49l-.993 3.372h-2.201v3.218h33.655v-3.219h-1.815a3.5 3.5 0 0 0 1.11-2.244h.705v-3.206H30.969s-6.872 1.85-11.093 1.85q-.146 0-.288-.004c-1.076-.022-1.649-.167-1.94-.286-.873-.356-2.882-2.005-3.333-3.327-.097-.29-.1-1.483.023-1.947.903-3.417 8.922-8.856 11.558-10.643.42-.285.707-.48.91-.626l9.31-.763-.006-2.24.422.02v2.17l4.964-.485a57 57 0 0 0-3.602.748c-2.914.7-5.78 1.587-8.604 2.604-2.813 1.043-5.593 2.205-8.238 3.667-1.32.73-2.61 1.535-3.795 2.497-.582.492-1.143 1.02-1.614 1.631-.463.599-.865 1.341-.798 2.118.051-.77.516-1.4 1.008-1.933.508-.534 1.098-.984 1.71-1.396 1.217-.835 2.532-1.524 3.86-2.177 2.671-1.283 5.43-2.388 8.221-3.4a150 150 0 0 1 8.46-2.803c1.424-.42 2.852-.83 4.294-1.187 1.439-.363 2.888-.71 4.378-.789-.744-.096-1.5-.056-2.245.008q-.663.059-1.324.144a47 47 0 0 0-4.082-1.239c3.188.262 6.291.655 7.652.836zm-4.83 21.296c.142.444.529.766.989.766.457 0 .845-.322.989-.766h1.08c-.166 1.078-1.028 1.905-2.069 1.905-1.042 0-1.904-.827-2.068-1.905zm-2.147 0c.09.898.502 1.693 1.108 2.244h-2.694a3.5 3.5 0 0 0 1.109-2.244zm-4.603 0c.144.444.53.766.99.766.457 0 .845-.322.989-.766h1.08c-.166 1.078-1.027 1.905-2.069 1.905s-1.904-.827-2.068-1.905zm-2.146 0c.09.898.502 1.693 1.108 2.244h-2.693a3.5 3.5 0 0 0 1.108-2.244zm-2.624 0h1.08c-.166 1.078-1.027 1.905-2.068 1.905a1.94 1.94 0 0 1-.906-.234c.24-.316.462-.634.665-.941a1 1 0 0 0 .241.036c.458 0 .845-.322.988-.766m-1.172-1.857c-.949 1.695-2.881 4.757-4.997 5.567v-.834c-.392-.136-.685-.601-.685-1.166 0-.563.293-1.029.685-1.164v-.837c-.754.102-1.344.955-1.344 2.001s.588 1.895 1.34 2.002a2.9 2.9 0 0 1-1.017.204H16l1.359-4.501c2.889.963 9.535-.643 11.897-1.272"/><path fill="#000" d="M30.441 30.367h16.336v-6.55H39.77s-9.329 0-9.329 6.55m-12.465-1.83c-.278 0-.503.37-.503.826s.225.826.503.826h5.236c.277 0 .503-.37.503-.826s-.226-.826-.503-.826zm2.653 10.966v-.644c-.33-.084-.582-.463-.582-.925 0-.463.251-.841.582-.926v-.644c-.592.082-1.054.749-1.054 1.57 0 .82.462 1.49 1.054 1.57m-2.595-.632v-.452c-.253-.04-.45-.32-.45-.669 0-.346.197-.627.45-.667v-.452c-.42.058-.751.534-.751 1.12 0 .585.33 1.061.751 1.12M170.491 9.5s-8 1.875-22.496 1.875C133.501 11.375 125.5 9.5 125.5 9.5l.591 3.748s.318.078.934.202l.517 2.88.461.1c.092.02.888.188 2.351.405v1.805h.77v3.033c-1.378-.41-2.109-.926-2.109-.926l.168 2.812h-1.574v4.921h3.515v16.872h-1.172v2.11h-.937v7.028h11.248v-7.03h-.938v-2.109h-1.172V28.48h19.684v16.87h-1.172v2.11h-.937v7.03h11.247v-7.03h-.937v-2.11h-1.171V28.48h3.515v-4.92h-1.574l.168-2.813s-.732.516-2.109.924v-3.033h.637v-1.786a41 41 0 0 0 2.484-.423l.46-.1.517-2.88c.618-.124.935-.202.935-.202zm-24.604 8.42v5.64h-5.792l.168-2.813s-.732.516-2.11.924v-3.033h.638v-.971c2.074.127 4.434.22 7.096.253m-9.14.719v3.352a13 13 0 0 1-4.218-.001v-3.351zm0 26.713h-4.217V28.481h4.217zm26.714 0h-4.218V28.481h4.218zm3.515-20.387v2.11h-37.961v-2.11zm-7.733-2.976v-3.351h4.218v3.352c-.626.103-1.327.17-2.11.17a13 13 0 0 1-2.108-.17m-1.406-3.35v3.033c-1.378-.409-2.109-.925-2.109-.925l.168 2.812h-5.792v-5.64q3.485-.04 6.964-.246v.964zm9.408-3.58c-1.732.319-8.328 1.386-19.25 1.386-10.906 0-17.515-1.067-19.25-1.387l-.241-1.338c3.275.556 9.846 1.403 19.491 1.403s16.216-.847 19.49-1.402zM67.684 63.128a.557.557 0 0 1 .862.538c-.26 1.85-.414 3.706-.218 5.383.183 1.568.668 2.942 1.629 4.008l.198.21.057.068c.571.792 1.046 1.323 1.609 1.78.495.404 1.076.76 1.882 1.19 1.903-1.978 4.601-3.968 7-5.433 1.264-.773 2.462-1.411 3.431-1.829a9 9 0 0 1 1.298-.459c.186-.046.368-.078.536-.088.122-.008.259-.005.395.025l.136.04.07.031q.106.058.18.153c.199.261.332.624.43 1.008.1.398.175.875.229 1.41.106 1.07.128 2.416.066 3.9-.12 2.872-.559 6.31-1.339 9.355 1.954 2.064 3.377 4.225 4.056 6.544.707 2.416.598 4.964-.491 7.687l-.001.002c-1.16 2.867-2.889 4.659-5.218 5.793-2.266 1.103-5.072 1.567-8.388 1.862-1.331.854-2.592 1.628-4.141 2.183-1.6.573-3.48.907-6.048.907s-4.45-.334-6.05-.907c-1.549-.555-2.81-1.329-4.14-2.183-3.317-.295-6.122-.759-8.388-1.862-2.33-1.134-4.057-2.926-5.217-5.793l-.001-.002c-1.09-2.723-1.199-5.27-.491-7.687.679-2.319 2.1-4.479 4.053-6.543-.78-3.046-1.218-6.484-1.337-9.356-.062-1.484-.04-2.83.066-3.9a10 10 0 0 1 .23-1.41c.097-.384.23-.746.43-1.008l.052-.06a.6.6 0 0 1 .198-.125 1.3 1.3 0 0 1 .53-.064c.168.01.35.042.536.089.373.092.814.25 1.297.459.97.417 2.167 1.055 3.432 1.828 2.398 1.465 5.096 3.455 6.999 5.432.806-.429 1.387-.785 1.883-1.188.56-.456 1.032-.983 1.598-1.769 1.532-2.267 1.606-4.532 1.606-6.882 0-.184.091-.356.244-.46zm-3.385 3.634c-.007 2.278-.128 4.744-1.793 7.208l-.01.014c-.606.842-1.145 1.455-1.808 1.994-.658.535-1.419.982-2.442 1.51a.556.556 0 0 1-.665-.118c-1.815-1.975-4.58-4.036-7.057-5.55-1.236-.755-2.385-1.365-3.291-1.755a8 8 0 0 0-1.125-.401 2 2 0 0 0-.27-.051 3 3 0 0 0-.132.413 9 9 0 0 0-.2 1.247c-.1 1.003-.123 2.294-.062 3.744.121 2.902.574 6.392 1.379 9.42a.56.56 0 0 1-.138.53c-1.989 2.052-3.365 4.135-4.002 6.308-.633 2.16-.546 4.452.456 6.959l.205.48c1.053 2.341 2.529 3.786 4.468 4.73 2.1 1.023 4.775 1.475 8.135 1.768q.137.014.252.087c1.372.882 2.568 1.619 4.03 2.143 1.458.522 3.208.842 5.675.842s4.216-.32 5.673-.842c1.463-.524 2.659-1.261 4.03-2.143l.06-.033a.6.6 0 0 1 .193-.054c3.36-.293 6.034-.745 8.135-1.768 2.068-1.007 3.61-2.584 4.673-5.21 1.003-2.507 1.088-4.798.456-6.96-.637-2.173-2.013-4.254-4.002-6.308a.56.56 0 0 1-.138-.53c.805-3.027 1.259-6.517 1.38-9.419.06-1.45.037-2.74-.063-3.744a9 9 0 0 0-.2-1.247 3 3 0 0 0-.134-.413q-.106.011-.268.05c-.291.073-.67.206-1.125.402-.907.39-2.055 1-3.291 1.755-2.478 1.514-5.242 3.575-7.058 5.55a.556.556 0 0 1-.664.118c-1.024-.528-1.783-.975-2.441-1.51-.655-.532-1.188-1.136-1.785-1.96-1.303-1.323-1.9-3.028-2.112-4.84-.167-1.428-.096-2.948.07-4.442z"/><path fill="#000" d="M57.982 76.549a.49.49 0 0 1 .41.89c-4.8 2.206-7.44 3.816-11.717 7.575a.49.49 0 0 1-.648-.738c4.355-3.827 7.077-5.486 11.955-7.727m15.192.24a.49.49 0 0 1 .65-.24c4.879 2.24 7.601 3.9 11.956 7.727a.49.49 0 0 1-.648.738c-4.276-3.759-6.917-5.37-11.717-7.575a.49.49 0 0 1-.24-.65"/><path fill="#000" fill-rule="evenodd" d="M9.518 184.299c-.693-1.46-.968-2.986-1.002-4.553-.01-.391-.153-.433-.459-.416-1.104.061-2.171-.086-3.177-.576-2.587-1.256-3.533-3.747-2.42-6.4l3.555-5.459c1.79-2.292 3.845-4.253 6.665-5.233.887-.309 1.784-.569 2.744-.523.568.027 1.088.16 1.538.516.137.109.26.177.443.075l5.429-2.321c1.643-.634 2.42-1.789 3.164-3.485l.619-1.391 5.38-3.533-.124 1.241c.124 2.524 1.257 4.202 3.128 6.026 4.36 2.131 6.646 3.224 8.052 3.454.148.076.292.149.462.028 1.246-.893 2.56-.692 3.91-.274 2.158.669 3.98 1.839 5.539 3.471 2.107 2.205 4.017 4.561 5.317 7.331 1.076 2.293.477 4.509-1.602 5.974-1.133.797-2.397 1.139-3.78 1.081-.637-.026-.64.013-.695.573-.171 1.884-.632 2.861-1.364 4.413q-.163.342-.343.731c-1.77 2.486-3.296 3.461-6.485 4.81-4.406 2.221-8.133 2.907-11.616 3.138-5.152.046-7.836-.447-12.318-2.11-3.604-.771-5.37-1.577-8.235-3.422-.981-.89-1.777-1.917-2.325-3.166m4.338-17.968c.275-.446.696-.642 1.025-.477.293.147.36.473.194.993l-1.058 4.752v.002c-.194 1.138-.389 2.277-.777 3.374-.524 1.481-1.197 2.853-2.703 3.596-.212.104-.285.277-.286.505-.002.509.003 1.017.075 1.524.197 1.46.466 3.451 1.543 4.449 2.3 2.131 4.185 3.095 8.465 4.46 4.61 1.754 7.24 2.137 11.984 2.106 4.19-.51 6.907-1.026 11.063-3.045 2.192-.853 3.952-1.821 5.729-4.24.794-1.445 1.147-2.994 1.169-4.615.044-.524-.054-.74-.361-1.039l-1.265-1.132c-1.19-1.57-1.746-3.389-2.118-5.281l-1.176-5.401c-.03-.878.076-.934.255-1.027l.01-.006.032-.016c.274-.15.793.141.933.55a118 118 0 0 1 2.05 6.838c.363.981.803 2.17 1.505 2.969.965 1.094 2.137 1.74 3.653 1.442 1.222-.239 2.147-.851 2.61-2.084.407-1.084.23-2.109-.264-3.074-1.353-2.638-2.983-5.086-5.149-7.141-1.344-1.276-2.907-2.189-4.707-2.642-.892-.225-1.763-.048-2.288.793-.317.509-.907.156-.907.156-3.04-1.485-5.648-2.331-8.653-4.211-.925-.872-1.857-1.416-2.478-2.658-.58-1.034-.798-1.689-.993-3.599l-.786.413c-.602.292-.683.75-.787 1.336v.001c-.214 1.195-.247 2.76.704 4.084.089.124-.234.084-.471.055l-.016-.002c-.607-.074-.795-.757-.963-1.373l-.359-2.634c-.462.21-.941.428-1.002.963a5.64 5.64 0 0 1-.825 2.359c-.448.726-.985 1.381-1.821 1.672-2.529 1.122-5.1 2.101-7.38 3.629-.364.291-.534.248-.752-.137-.455-.804-.936-1.039-1.85-.858-2.532.501-4.5 1.949-6.197 3.801-2.012 2.559-3.003 4.082-4.374 7.052-.59 1.278.166 2.821 1.28 3.533 2.207 1.411 4.658.388 5.735-1.96.919-2.002 1.453-4.133 1.998-6.297.23-.988.393-1.527.754-2.458" clip-rule="evenodd"/><defs><clipPath id="a"><path fill="#fff" d="M151 82h36.879v36.568H151z"/></clipPath></defs></svg>