<svg xmlns="http://www.w3.org/2000/svg" width="3762" height="605" fill="none" viewBox="0 0 3762 605"><g id="Loader"><g id="U3"><circle id="Ellipse 2" cx="1861" cy="332" r="250" fill="#d9d9d9"/><g id="logo-anim" fill="#000"><g id="eyes"><path id="Vector" d="M1966.37 381c-3.87 0-7-3.13-7-7v-65c0-3.86-3.13-7-7-7h-23.79c-3.87 0-7-3.13-7-7v-6c0-3.86 3.13-7 7-7h89.58c3.86 0 7 3.14 7 7v6c0 3.87-3.14 7-7 7h-23.79c-3.87 0-7 3.14-7 7v65c0 3.87-3.13 7-7 7z"/><path id="Vector_2" d="M1756.78 381c3.87 0 7-3.13 7-7v-65c0-3.86 3.14-7 7-7h23.79c3.87 0 7-3.13 7-7v-6c0-3.86-3.13-7-7-7H1705c-3.87 0-7 3.14-7 7v6c0 3.87 3.13 7 7 7h23.78c3.87 0 7 3.14 7 7v65c0 3.87 3.14 7 7 7z"/></g><path id="Vector_3" d="M1896.54 385.67c12.71 4.23 16.99 15.12 10.98 27.12-5.6 11.2-14.72 19.14-26.33 23.62-3.84.83-4.77 2.98-4.52 9.41-.32 5.91-.5 9.28 5.66 13 9.65 5.84 24.5 12.33 35.42 7.53 5.02-2.21 8.54-.95 10.21 2.75 1.71 3.75.33 8.26-4.42 10.37-9.59 4.25-30.04 2.38-30.04 2.38s-4.67 1.32-24.17-10.18c-19.5 11.5-24.17 10.18-24.17 10.18s-20.45 1.87-30.04-2.38c-4.75-2.11-6.13-6.62-4.42-10.37 1.67-3.7 5.19-4.96 10.21-2.75 10.92 4.8 25.77-1.69 35.42-7.53 6.15-3.72 5.97-7.09 5.66-13 .06-6.63-1.09-8.43-4.52-9.41-11.61-4.48-20.73-12.42-26.33-23.62-6.01-12-1.73-22.89 10.98-27.12 9.03-3.02 18.11-4.55 27.21-4.67 9.09.12 18.18 1.65 27.21 4.67"/><path id="Vector_4" fill-rule="evenodd" d="M1608.85 480.39c-8.37-17.64-11.7-36.08-12.11-55.02-.11-4.72-1.84-5.23-5.54-5.02-13.34.73-26.24-1.05-38.39-6.96-31.26-15.18-42.7-45.29-29.25-77.34l42.96-65.97c21.63-27.7 46.47-51.4 80.54-63.24 10.72-3.73 21.56-6.87 33.16-6.32 6.87.33 13.15 1.94 18.59 6.24 1.66 1.32 3.13 2.14 5.35.9l65.6-28.05c19.86-7.66 29.24-21.61 38.24-42.11l7.48-16.81L1880.5 78l-1.5 15c1.5 30.5 15.18 50.77 37.8 72.81 52.68 25.76 80.3 38.97 97.3 41.74 1.79.92 3.53 1.8 5.58.34 15.06-10.79 30.94-8.36 47.24-3.31 26.08 8.09 48.1 22.23 66.94 41.94 25.46 26.65 48.55 55.12 64.25 88.59 13.01 27.72 5.77 54.49-19.36 72.19-13.68 9.64-28.96 13.77-45.68 13.07-7.69-.32-7.73.15-8.39 6.92-2.07 22.77-7.64 34.57-16.49 53.33-1.31 2.77-2.68 5.69-4.14 8.83-21.38 30.04-39.83 41.83-78.37 58.13-53.24 26.84-98.28 35.13-140.37 37.92-62.25.56-94.69-5.4-148.85-25.5-43.55-9.32-64.88-19.05-99.51-41.35-11.86-10.76-21.48-23.17-28.1-38.26m52.43-217.13c3.32-5.39 8.41-7.75 12.38-5.76 3.54 1.78 4.36 5.72 2.34 12l-12.78 57.42v.03c-2.35 13.75-4.7 27.51-9.39 40.77-6.33 17.9-14.46 34.47-32.66 43.45-2.56 1.26-3.45 3.35-3.46 6.1-.02 6.16.04 12.3.91 18.42 2.38 17.65 5.63 41.7 18.64 53.76 27.8 25.76 50.58 37.41 102.3 53.9 55.7 21.19 87.48 25.82 144.81 25.45 50.64-6.17 83.47-12.4 133.69-36.8 26.49-10.31 47.75-22 69.23-51.23 9.59-17.46 13.86-36.19 14.12-55.77.54-6.34-.64-8.94-4.36-12.56l-15.28-13.68c-14.38-18.97-21.1-40.95-25.6-63.82l-14.21-65.26c-.37-10.61.92-11.29 3.09-12.41l.12-.07c.13-.06.25-.13.38-.2 3.31-1.81 9.58 1.71 11.27 6.65 10.15 30.89 15.59 48.92 24.77 82.63 4.39 11.85 9.71 26.22 18.2 35.88 11.65 13.22 25.82 21.02 44.14 17.42 14.77-2.89 25.94-10.28 31.54-25.18 4.92-13.1 2.78-25.49-3.19-37.15-16.35-31.88-36.05-61.46-62.22-86.29-16.25-15.42-35.13-26.45-56.88-31.93-10.78-2.72-21.31-.58-27.65 9.59-3.83 6.15-10.96 1.88-10.96 1.88-36.74-17.94-68.25-28.17-104.57-50.89-11.17-10.53-22.44-17.11-29.94-32.11-7-12.5-9.65-20.42-12-43.5l-9.5 5c-7.27 3.53-8.25 9.06-9.51 16.14v.01c-2.58 14.44-2.99 33.35 8.51 49.35 1.07 1.5-2.83 1.02-5.7.67l-.19-.02c-7.33-.9-9.6-9.15-11.64-16.6l-4.33-31.83c-5.58 2.54-11.38 5.18-12.11 11.64-1.16 10.26-4.56 19.77-9.97 28.51-5.42 8.77-11.9 16.68-22.01 20.2-30.55 13.56-61.62 25.39-89.17 43.86-4.4 3.51-6.46 2.99-9.09-1.66-5.5-9.72-11.31-12.55-22.35-10.37-30.61 6.06-54.4 23.55-74.9 45.93-24.31 30.93-36.28 49.33-52.85 85.22-7.14 15.45 2.01 34.09 15.47 42.69 26.67 17.05 56.28 4.69 69.3-23.68 11.1-24.19 17.56-49.94 24.14-76.1 2.78-11.93 4.75-18.45 9.12-29.7" clip-rule="evenodd"/></g></g><g id="garlic-svgrepo-com (1) 1"><g id="U4"><circle id="Ellipse 2_2" cx="2624" cy="331" r="250" fill="#d9d9d9"/><path id="Vector_5" fill="#000" stroke="#000" stroke-width=".007" d="M2917.56 356.068c-28.59-72.474-87.68-107.136-141.06-137.071-57.19-33.086-104.84-61.445-114.37-129.192 0-6.302-1.91-12.605-1.91-18.907 1.91-1.575 1.91-3.15 1.91-4.726 0-9.453-7.63-15.755-19.07-15.755h-38.12c-11.44 0-19.06 6.302-19.06 15.755v22.057c-7.63 69.323-57.19 97.682-114.38 130.768-53.38 29.935-112.47 64.597-141.06 137.071-28.6 72.474 7.62 129.192 51.47 159.127 26.68 17.331 59.09 26.784 91.5 26.784 20.97 0 41.93-4.726 62.9-12.604 26.69 15.755 55.28 25.208 87.69 25.208s61-9.453 87.69-25.208c19.06 7.878 40.03 12.604 62.9 12.604 32.41 0 64.82-9.453 91.5-26.784 43.85-28.359 80.07-85.078 51.47-159.127Zm-510.87 133.919c-34.32-22.057-62.91-66.172-40.03-124.466 24.78-61.445 74.34-91.38 125.81-121.315 13.34-7.878 26.69-15.755 40.03-25.209-7.62 11.029-15.25 23.633-22.87 34.662-22.88 34.661-43.85 64.596-47.66 94.531-11.44 63.021 3.81 118.164 43.84 157.552-32.4 9.453-70.53 3.151-99.12-15.755Zm301.19-3.151c-1.91 3.151-5.72 4.727-7.63 7.878-3.81 1.575-5.72 3.151-7.62 6.302-20.97 14.179-43.85 22.057-68.63 22.057s-47.66-7.878-68.62-20.482c-1.91-3.151-5.72-4.726-7.63-6.302-3.81-1.575-5.72-4.727-7.62-7.878-34.32-31.51-47.66-81.927-38.13-135.494 3.81-23.633 22.88-51.993 43.84-83.503 30.5-45.69 66.72-100.833 76.25-167.005v-1.576c0-3.15 1.91-7.877 1.91-12.604v6.302c0 3.151 0 6.302 1.91 9.453 11.43 64.597 45.75 119.74 76.25 163.855 20.97 33.085 40.03 59.869 43.84 83.502 9.53 55.143-3.81 103.985-38.12 135.495Zm133.43 3.151c-30.5 18.906-66.72 25.208-101.03 15.755 38.13-39.388 53.38-94.531 43.85-157.552-5.72-28.359-24.79-59.87-47.66-94.531-7.63-11.029-15.25-22.057-20.97-33.086 13.34 7.878 26.69 15.755 40.03 23.633 53.38 29.935 102.94 58.294 125.81 121.315 22.88 58.294-5.71 102.409-40.03 124.466Z"/></g></g><g id="garlic-svgrepo-com (1) 2"><g id="U5"><circle id="Ellipse 2_3" cx="3395.75" cy="317.583" r="250" fill="#d9d9d9"/><path id="Vector_6" fill="#000" stroke="#000" stroke-width=".007" d="M3689.31 342.651c-28.59-72.474-87.69-107.135-141.06-137.07-57.19-33.086-104.84-61.446-114.38-129.193 0-6.302-1.9-12.604-1.9-18.906 1.9-1.576 1.9-3.151 1.9-4.727 0-9.453-7.62-15.755-19.06-15.755h-38.12c-11.44 0-19.07 6.302-19.07 15.755v22.058c-7.62 69.322-57.18 97.682-114.37 130.768-53.38 29.935-112.47 64.596-141.06 137.07-28.6 72.474 7.62 129.193 51.47 159.128 26.68 17.33 59.09 26.784 91.5 26.784 20.96 0 41.93-4.727 62.9-12.605 26.69 15.756 55.28 25.209 87.69 25.209s61-9.453 87.69-25.209c19.06 7.878 40.03 12.605 62.9 12.605 32.41 0 64.82-9.454 91.5-26.784 43.85-28.36 80.07-85.078 51.47-159.128ZM3178.44 476.57c-34.32-22.057-62.91-66.172-40.03-124.466 24.78-61.445 74.34-91.38 125.81-121.315 13.34-7.878 26.69-15.755 40.03-25.208-7.63 11.028-15.25 23.633-22.88 34.661-22.87 34.662-43.84 64.597-47.65 94.531-11.44 63.021 3.81 118.165 43.84 157.553-32.4 9.453-70.53 3.151-99.12-15.756Zm301.18-3.151c-1.9 3.151-5.71 4.727-7.62 7.878-3.81 1.575-5.72 3.151-7.63 6.302-20.96 14.18-43.84 22.057-68.62 22.057s-47.66-7.877-68.63-20.481c-1.9-3.152-5.71-4.727-7.62-6.303-3.81-1.575-5.72-4.726-7.63-7.877-34.31-31.511-47.65-81.927-38.12-135.495 3.81-23.633 22.87-51.992 43.84-83.503 30.5-45.69 66.72-100.833 76.25-167.005v-1.575c0-3.151 1.91-7.878 1.91-12.605v6.303c0 3.15 0 6.302 1.91 9.453 11.43 64.596 45.75 119.739 76.25 163.854 20.96 33.086 40.03 59.87 43.84 83.502 9.53 55.144-3.81 103.985-38.13 135.495Zm133.44 3.151c-30.5 18.907-66.72 25.209-101.03 15.756 38.13-39.388 53.38-94.532 43.84-157.553-5.71-28.359-24.78-59.869-47.65-94.531-7.63-11.028-15.25-22.057-20.97-33.086 13.34 7.878 26.69 15.755 40.03 23.633 53.38 29.935 102.94 58.294 125.81 121.315 22.88 58.294-5.72 102.409-40.03 124.466Z"/></g></g><g id="garlic-svgrepo-com (1) 3"><g id="U2"><circle id="Ellipse 2_4" cx="1097.75" cy="317.583" r="250" fill="#d9d9d9"/><path id="Vector_7" fill="#000" stroke="#000" stroke-width=".007" d="M1391.31 342.651c-28.59-72.474-87.69-107.135-141.06-137.07-57.19-33.086-104.84-61.446-114.38-129.193 0-6.302-1.9-12.604-1.9-18.906 1.9-1.576 1.9-3.151 1.9-4.727 0-9.453-7.62-15.755-19.06-15.755h-38.12c-11.44 0-19.07 6.302-19.07 15.755v22.058c-7.62 69.322-57.18 97.682-114.37 130.768-53.375 29.935-112.469 64.596-141.063 137.07s7.625 129.193 51.469 159.128c26.688 17.33 59.094 26.784 91.5 26.784 20.969 0 41.938-4.727 62.904-12.605 26.69 15.756 55.28 25.209 87.69 25.209s61-9.453 87.69-25.209c19.06 7.878 40.03 12.605 62.9 12.605 32.41 0 64.82-9.454 91.5-26.784 43.85-28.36 80.07-85.078 51.47-159.128ZM880.437 476.57c-34.312-22.057-62.906-66.172-40.031-124.466 24.781-61.445 74.344-91.38 125.813-121.315 13.343-7.878 26.687-15.755 40.031-25.208-7.625 11.028-15.25 23.633-22.875 34.661-22.875 34.662-43.844 64.597-47.656 94.531-11.438 63.021 3.812 118.165 43.843 157.553-32.406 9.453-70.531 3.151-99.125-15.756Zm301.183-3.151c-1.9 3.151-5.71 4.727-7.62 7.878-3.81 1.575-5.72 3.151-7.63 6.302-20.96 14.18-43.84 22.057-68.62 22.057s-47.66-7.877-68.63-20.481c-1.9-3.152-5.71-4.727-7.62-6.303-3.81-1.575-5.72-4.726-7.63-7.877-34.308-31.511-47.651-81.927-38.12-135.495 3.812-23.633 22.875-51.992 43.84-83.503 30.5-45.69 66.72-100.833 76.25-167.005v-1.575c0-3.151 1.91-7.878 1.91-12.605v6.303c0 3.15 0 6.302 1.91 9.453 11.43 64.596 45.75 119.739 76.25 163.854 20.96 33.086 40.03 59.87 43.84 83.502 9.53 55.144-3.81 103.985-38.13 135.495Zm133.44 3.151c-30.5 18.907-66.72 25.209-101.03 15.756 38.13-39.388 53.38-94.532 43.84-157.553-5.71-28.359-24.78-59.869-47.65-94.531-7.63-11.028-15.25-22.057-20.97-33.086 13.34 7.878 26.69 15.755 40.03 23.633 53.38 29.935 102.94 58.294 125.81 121.315 22.88 58.294-5.72 102.409-40.03 124.466Z"/></g></g><g id="garlic-svgrepo-com (1) 4"><g id="U1"><circle id="Ellipse 1" cx="366" cy="329" r="250" fill="#d9d9d9"/><path id="Vector_8" fill="#000" stroke="#000" stroke-width=".007" d="M659.312 382.651c-28.593-72.474-87.687-107.135-141.062-137.07-57.188-33.086-104.844-61.446-114.375-129.193 0-6.302-1.906-12.604-1.906-18.906 1.906-1.576 1.906-3.151 1.906-4.727 0-9.453-7.625-15.755-19.063-15.755h-38.125c-11.437 0-19.062 6.302-19.062 15.755v22.058C320 184.135 270.437 212.495 213.25 245.581c-53.375 29.935-112.469 64.596-141.063 137.07s7.625 129.193 51.469 159.128c26.688 17.33 59.094 26.784 91.5 26.784 20.969 0 41.938-4.727 62.906-12.605 26.688 15.756 55.282 25.209 87.688 25.209s61-9.453 87.687-25.209c19.063 7.878 40.032 12.605 62.907 12.605 32.406 0 64.812-9.454 91.5-26.784 43.843-28.36 80.062-85.078 51.468-159.128ZM148.437 516.57c-34.312-22.057-62.906-66.172-40.031-124.466 24.781-61.445 74.344-91.38 125.813-121.315 13.343-7.878 26.687-15.755 40.031-25.208-7.625 11.028-15.25 23.633-22.875 34.661-22.875 34.662-43.844 64.597-47.656 94.531-11.438 63.021 3.812 118.165 43.843 157.553-32.406 9.453-70.531 3.151-99.125-15.756Zm301.188-3.151c-1.906 3.151-5.719 4.727-7.625 7.878-3.813 1.575-5.719 3.151-7.625 6.302-20.969 14.18-43.844 22.057-68.625 22.057s-47.656-7.877-68.625-20.481c-1.906-3.152-5.719-4.727-7.625-6.303-3.813-1.575-5.719-4.726-7.625-7.877-34.313-31.511-47.656-81.927-38.125-135.495 3.812-23.633 22.875-51.992 43.844-83.503 30.5-45.69 66.718-100.833 76.25-167.005v-1.575c0-3.151 1.906-7.878 1.906-12.604v6.302c0 3.151 0 6.302 1.906 9.453 11.438 64.596 45.75 119.739 76.25 163.854 20.969 33.086 40.031 59.87 43.844 83.502 9.531 55.144-3.813 103.985-38.125 135.495Zm133.437 3.151c-30.5 18.907-66.718 25.209-101.031 15.756 38.125-39.388 53.375-94.532 43.844-157.553-5.719-28.359-24.781-59.869-47.656-94.531-7.625-11.028-15.25-22.057-20.969-33.086l40.031 23.633c53.375 29.935 102.938 58.294 125.813 121.315 22.875 58.294-5.719 102.409-40.032 124.466Z"/></g></g></g></svg>