<?xml version="1.0" encoding="UTF-8"?>
<svg xmlns="http://www.w3.org/2000/svg" viewBox="120 140 780 750">
  <title>Takko Blog</title>
  <rect x="120" y="140" width="780" height="750" rx="180" fill="#212121" />
  <g fill="none" stroke="#fff" stroke-linejoin="round" stroke-linecap="round">
    <path d="M199 468C257.592 409.289 296.829 383.891 378 352M199 468C174.118 374.842 171 252.5 187 231C206 224.5 320.888 290.902 378 352M199 468C136.885 532.312 124 583 143 680C191.5 772 243 783 346 792C399.466 819.505 433 839 502 839C579 836 598.935 822.763 652.5 792C784.385 779.941 838 749 863 648.5C866 571.5 847.902 515.187 795.5 461.5M378 352C408.38 336.495 421.494 325.085 439.5 301C455.5 265.5 465.5 227.5 465.5 191L531 147C522.5 204.5 543.23 277.333 567 312C586.176 332.053 597.464 341.182 620 348M620 348C706.5 271.5 788 231 814 236.5C826 252.5 824.561 374.668 795.5 461.5M620 348C693.486 383.276 731.75 408.424 795.5 461.5" stroke-width="28" />
    <path d="M575 524H694" stroke-width="34" />
    <path d="M638 524V635.5" stroke-width="34" />
    <path d="M296.5 523.5H415.5" stroke-width="34" />
    <path d="M359.5 523.5V635" stroke-width="34" />
    <path d="M191 587.5L271 600.5M189.5 667L271 651.5" stroke-width="30" />
    <path d="M801 588L721 601M802.5 667.5L721 652" stroke-width="30" />
    <path d="M451 714.5C470.702 710.853 481.081 703.062 498.5 690M498.5 690C515.387 703.979 525.654 711.774 545.5 714.5M498.5 690V654.5M498.5 654.5L488 645L485.5 626H510L508.5 645L498.5 654.5Z" stroke-width="22" />
  </g>
  <path d="M510 626H485.5L488 645L498.5 654.5L508.5 645L510 626Z" fill="#fff" />
</svg>