<svg viewBox="0 0 100 100" xmlns="http://www.w3.org/2000/svg">
  <!-- Left ear -->
  <path d="M25 40 L35 20 L45 35 L35 40 Z" fill="none" stroke="black" stroke-width="2.5" stroke-linecap="round" stroke-linejoin="round"/>
  
  <!-- Right ear -->
  <path d="M55 35 L65 20 L75 40 L65 40 Z" fill="none" stroke="black" stroke-width="2.5" stroke-linecap="round" stroke-linejoin="round"/>
  
  <!-- Face -->
  <path d="M20 50 C20 35 35 25 50 25 C65 25 80 35 80 50 L80 65 C80 75 70 85 50 85 C30 85 20 75 20 65 Z" fill="none" stroke="black" stroke-width="2.5" stroke-linecap="round" stroke-linejoin="round"/>
  
  <!-- Left whiskers -->
  <line x1="8" y1="52" x2="22" y2="52" stroke="black" stroke-width="2" stroke-linecap="round"/>
  <line x1="8" y1="58" x2="22" y2="58" stroke="black" stroke-width="2" stroke-linecap="round"/>
  
  <!-- Right whiskers -->
  <line x1="78" y1="52" x2="92" y2="52" stroke="black" stroke-width="2" stroke-linecap="round"/>
  <line x1="78" y1="58" x2="92" y2="58" stroke="black" stroke-width="2" stroke-linecap="round"/>
  
  <!-- Left eye (T shape) -->
  <line x1="35" y1="48" x2="45" y2="48" stroke="black" stroke-width="2.5" stroke-linecap="round"/>
  <line x1="40" y1="48" x2="40" y2="43" stroke="black" stroke-width="2.5" stroke-linecap="round"/>
  
  <!-- Right eye (T shape) -->
  <line x1="55" y1="48" x2="65" y2="48" stroke="black" stroke-width="2.5" stroke-linecap="round"/>
  <line x1="60" y1="48" x2="60" y2="43" stroke="black" stroke-width="2.5" stroke-linecap="round"/>
  
  <!-- Nose -->
  <path d="M48 62 L52 62 L50 66 Z" fill="black"/>
</svg>
